HIERARCHY
ROOT Hips
{
  OFFSET -102.467 93.6631 130.069
  CHANNELS 6 Xposition Yposition Zposition Zrotation Xrotation Yrotation
  JOINT LeftUpLeg
  {
    OFFSET 8.64259 1.95398 -2.38835
    CHANNELS 3 Zrotation Xrotation Yrotation
    JOINT LeftLeg
    {
      OFFSET 43.7702 0 0
      CHANNELS 3 Zrotation Xrotation Yrotation
      JOINT LeftFoot
      {
        OFFSET 40.6238 0 0
        CHANNELS 3 Zrotation Xrotation Yrotation
        JOINT LeftToeBase
        {
          OFFSET 12.7242 0 0
          CHANNELS 3 Zrotation Xrotation Yrotation
          End Site
          {
            OFFSET 0 0 0
          }
        }
      }
    }
  }
  JOINT RightUpLeg
  {
    OFFSET -8.2249 1.95398 -2.59336
    CHANNELS 3 Zrotation Xrotation Yrotation
    JOINT RightLeg
    {
      OFFSET 43.5653 0 0
      CHANNELS 3 Zrotation Xrotation Yrotation
      JOINT RightFoot
      {
        OFFSET 40.6238 0 0
        CHANNELS 3 Zrotation Xrotation Yrotation
        JOINT RightToeBase
        {
          OFFSET 12.7242 0 0
          CHANNELS 3 Zrotation Xrotation Yrotation
          End Site
          {
            OFFSET 0 0 0
          }
        }
      }
    }
  }
  JOINT Spine
  {
    OFFSET 0.165834 0.87714 6.61349
    CHANNELS 3 Zrotation Xrotation Yrotation
    JOINT Spine1
    {
      OFFSET 7.38963 1.71661e-005 0
      CHANNELS 3 Zrotation Xrotation Yrotation
      JOINT Spine2
      {
        OFFSET 11.9445 1.14441e-005 0
        CHANNELS 3 Zrotation Xrotation Yrotation
        JOINT Spine3
        {
          OFFSET 14.7254 4.19617e-005 0
          CHANNELS 3 Zrotation Xrotation Yrotation
          JOINT Spine4
          {
            OFFSET 10.9679 0 0
            CHANNELS 3 Zrotation Xrotation Yrotation
            JOINT RightShoulder
            {
              OFFSET 2.46616 -1.6653 3.69651
              CHANNELS 3 Zrotation Xrotation Yrotation
              JOINT RightArm
              {
                OFFSET 13.0012 0 0
                CHANNELS 3 Zrotation Xrotation Yrotation
                JOINT RightForeArm
                {
                  OFFSET 28.7848 1.52588e-005 0
                  CHANNELS 3 Zrotation Xrotation Yrotation
                  JOINT RightHand
                  {
                    OFFSET 26.5688 1.52588e-005 0
                    CHANNELS 3 Zrotation Xrotation Yrotation
                    End Site
                    {
                      OFFSET 0 0 0
                    }
                  }
                }
              }
            }
            JOINT LeftShoulder
            {
              OFFSET 2.38034 -1.29275 -3.7523
              CHANNELS 3 Zrotation Xrotation Yrotation
              JOINT LeftArm
              {
                OFFSET 16.3182 6.10351e-005 0
                CHANNELS 3 Zrotation Xrotation Yrotation
                JOINT LeftForeArm
                {
                  OFFSET 27.0901 0 0
                  CHANNELS 3 Zrotation Xrotation Yrotation
                  JOINT LeftHand
                  {
                    OFFSET 24.5451 1.52588e-005 0
                    CHANNELS 3 Zrotation Xrotation Yrotation
                    End Site
                    {
                      OFFSET 0 0 0
                    }
                  }
                }
              }
            }
            JOINT Neck
            {
              OFFSET 5.0226 -0.0266342 0
              CHANNELS 3 Zrotation Xrotation Yrotation
              JOINT Head
              {
                OFFSET 6.69363 2.86102e-005 0
                CHANNELS 3 Zrotation Xrotation Yrotation
                End Site
                {
                  OFFSET 0 0 0
                }
              }
            }
          }
        }
      }
    }
  }
}
MOTION
Frames:	7
Frame Time:	0.0416667
189.404 35.6528 -202.203 -127.391 -52.3624 -119.146 -157.007 83.5549 80.7073 -156.396 24.227 2.05679 62.7134 7.24454 20.4903 70.7247 -0.218958 10.8041 -120.015 69.0753 4.46909 -151.589 -23.0947 -2.50635 57.8578 10.4413 21.3968 64.7609 -0.303435 17.3154 0.686206 12.1038 -90.8853 2.67031 1.02381 -1.71505 -9.00143 0.947343 -1.75844 -31.5338 1.49187 -1.32816 -11.5212 1.49188 -1.32814 95.4512 -42.7394 -93.6503 -12.358 -41.2113 -54.6251 -83.9856 9.88352 -78.258 26.502 13.6586 47.8115 -90.5833 -39.6511 75.0127 -9.68078 19.986 -62.7048 54.6767 25.0523 -71.0849 -27.8142 -0.396267 -3.01557 14.1348 3.58575 -0.214553 2.1464 4.01996 8.87274 
189.567 35.8905 -202.137 -129.975 -52.843 -122.346 -143.343 81.6116 65.6187 -155.664 21.2768 2.24293 61.6929 6.89147 20.0804 71.8336 -0.959962 9.29685 -123.453 66.8189 6.56274 -151.444 -23.7007 -2.39581 58.1485 10.2008 20.988 63.0569 0.843591 19.3227 0.519339 12.27 -90.9253 2.33549 0.677301 -1.79367 -9.33655 0.597708 -1.82174 -31.8656 1.185 -1.50729 -11.853 1.18501 -1.50729 95.8571 -41.8268 -93.0911 -9.88139 -40.0354 -53.8862 -84.1905 7.76033 -78.9419 24.7326 12.8928 48.3641 -91.4645 -41.1795 73.975 -9.14405 19.3991 -62.8087 55.2093 25.4927 -71.7558 -28.1716 0.187506 -5.58757 14.2175 2.64605 0.314003 0.18011 2.80382 8.52732 
189.426 35.8034 -202.019 -129.055 -52.9913 -121.992 -130.912 80.7746 53.485 -155.302 21.4451 2.42457 59.4153 6.23689 23.4167 75.9998 -1.11029 9.33279 -121.045 67.2054 4.27686 -151.662 -23.79 -2.37671 57.5335 9.9469 19.8147 65.1695 0.86233 19.6757 0.516239 12.2138 -90.8768 2.44811 0.689127 -1.70058 -9.22381 0.613626 -1.72926 -31.7538 1.16831 -1.41493 -11.7411 1.16831 -1.41494 95.712 -42.0932 -93.3017 -12.7477 -41.0299 -54.932 -77.5568 9.02472 -78.8325 17.8144 10.1409 52.4191 -91.8811 -41.0672 73.2549 -9.04561 19.2432 -62.3257 55.5502 25.2227 -71.9853 -28.434 0.104315 -5.20934 13.1096 2.35027 -0.551186 1.20343 2.86264 9.50446 
189.431 35.8168 -201.888 -127.59 -53.3889 -120.918 -127.832 81.0249 50.5031 -155.244 21.719 2.49216 60.2598 6.16359 21.6888 76.0623 0.22316 11.9191 -118.305 67.4146 1.45384 -151.814 -24.2413 -2.42372 58.2354 9.84278 19.8993 63.5799 0.0686614 17.8505 0.46836 12.1209 -90.7898 2.63365 0.626251 -1.53365 -9.0381 0.55815 -1.55973 -31.5691 1.0582 -1.2746 -11.5564 1.05819 -1.2746 95.3979 -42.6167 -93.7596 -15.3149 -42.4331 -55.5255 -67.8342 11.9217 -80.3389 5.78614 3.68192 56.4683 -91.1576 -40.3662 74.2528 -9.60224 19.4621 -62.2084 55.9364 25.5179 -72.1303 -28.6252 0.489908 -6.85844 14.5256 2.94407 -0.272552 -0.332534 3.21145 8.56702 
189.431 35.7753 -201.817 -127.137 -53.6516 -120.271 -129.135 81.8925 51.7444 -155.302 21.7536 2.46406 60.6268 5.78 19.9998 76.0011 0.583699 12.616 -118.648 68.3525 1.44326 -151.596 -24.0114 -2.51735 57.0533 9.83237 18.9398 68.3403 0.985988 20.3065 0.452819 12.1122 -90.8095 2.65052 0.587475 -1.57281 -9.02125 0.517698 -1.59714 -31.5517 1.03297 -1.3236 -11.5391 1.03297 -1.32362 95.2315 -42.4034 -94.0776 -12.7909 -43.4023 -54.1326 -56.792 9.26115 -79.9813 -12.5257 -6.88139 54.6461 -90.9805 -40.1092 74.4742 -9.78761 19.305 -62.1822 55.1817 24.8471 -71.9228 -28.6157 0.284112 -5.97696 13.5184 2.58316 -1.65698 1.18448 3.40204 10.1633 
189.367 35.9086 -201.776 -127.1 -53.7289 -120.349 -126.191 81.1216 48.6614 -155.281 21.4109 2.46649 60.0786 6.55825 22.8671 75.9962 -0.370164 10.7703 -118.467 67.8035 1.43542 -151.798 -24.4924 -2.40199 58.6136 9.62916 19.5956 63.4112 -0.657144 16.3757 0.476926 12.1478 -90.8805 2.57937 0.608292 -1.7104 -9.0926 0.53243 -1.73551 -31.622 1.09415 -1.4486 -11.6093 1.09416 -1.44861 95.5941 -42.0424 -93.5117 -10.5213 -43.7253 -53.2712 -42.72 9.16276 -80.5188 -34.5902 -16.4061 45.1745 -91.4596 -41.2855 74.014 -8.48683 19.205 -62.7842 54.0797 24.5437 -71.5433 -29.2447 0.0463608 -4.94184 12.138 2.44965 -1.14974 3.04364 3.34593 10.9443 
189.342 35.8771 -201.685 -126.984 -53.6411 -120.113 -127.165 81.2487 49.7955 -155.363 21.8019 2.43848 59.5617 6.3068 23.5691 76.7124 -0.6938 10.1867 -118.746 67.941 1.83698 -151.879 -25.0216 -2.38282 58.7101 9.43283 18.9661 64.5938 -1.08408 15.7424 0.49949 12.1528 -90.8807 2.56969 0.653268 -1.71011 -9.10225 0.577394 -1.7372 -31.6319 1.13698 -1.4348 -11.6193 1.13698 -1.43481 95.6825 -41.8589 -93.3873 -17.3317 -45.2962 -57.3515 -31.0225 11.4318 -82.3843 -53.4646 -23.3652 39.9319 -91.2595 -40.863 74.224 -8.89359 19.3699 -62.7759 54.4304 24.7725 -71.632 -29.0979 0.0512766 -4.9657 13.2616 2.42324 -1.18829 1.52103 3.18906 10.792 
